<svg version="1.1" xmlns="http://www.w3.org/2000/svg" xmlns:xlink="http://www.w3.org/1999/xlink" width="334.1513671875" height="223"><defs/><g><text fill="#cfcfcf" stroke="none" font-family="Arial" font-size="8px" font-style="normal" font-weight="normal" text-decoration="undefined" x="0" y="0" text-anchor="start" dominant-baseline="alphabetic" transform="matrix(1 0 0 1 0 0)">UNREGISTERED</text><text fill="#cfcfcf" stroke="none" font-family="Arial" font-size="8px" font-style="normal" font-weight="normal" text-decoration="undefined" x="0" y="12" text-anchor="start" dominant-baseline="alphabetic" transform="matrix(1 0 0 1 0 0)">UNREGISTERED</text><text fill="#cfcfcf" stroke="none" font-family="Arial" font-size="8px" font-style="normal" font-weight="normal" text-decoration="undefined" x="0" y="24" text-anchor="start" dominant-baseline="alphabetic" transform="matrix(1 0 0 1 0 0)">UNREGISTERED</text><text fill="#cfcfcf" stroke="none" font-family="Arial" font-size="8px" font-style="normal" font-weight="normal" text-decoration="undefined" x="0" y="36" text-anchor="start" dominant-baseline="alphabetic" transform="matrix(1 0 0 1 0 0)">UNREGISTERED</text><text fill="#cfcfcf" stroke="none" font-family="Arial" font-size="8px" font-style="normal" font-weight="normal" text-decoration="undefined" x="0" y="48" text-anchor="start" dominant-baseline="alphabetic" transform="matrix(1 0 0 1 0 0)">UNREGISTERED</text><text fill="#cfcfcf" stroke="none" font-family="Arial" font-size="8px" font-style="normal" font-weight="normal" text-decoration="undefined" x="0" y="60" text-anchor="start" dominant-baseline="alphabetic" transform="matrix(1 0 0 1 0 0)">UNREGISTERED</text><text fill="#cfcfcf" stroke="none" font-family="Arial" font-size="8px" font-style="normal" font-weight="normal" text-decoration="undefined" x="0" y="72" text-anchor="start" dominant-baseline="alphabetic" transform="matrix(1 0 0 1 0 0)">UNREGISTERED</text><text fill="#cfcfcf" stroke="none" font-family="Arial" font-size="8px" font-style="normal" font-weight="normal" text-decoration="undefined" x="0" y="84" text-anchor="start" dominant-baseline="alphabetic" transform="matrix(1 0 0 1 0 0)">UNREGISTERED</text><text fill="#cfcfcf" stroke="none" font-family="Arial" font-size="8px" font-style="normal" font-weight="normal" text-decoration="undefined" x="0" y="96" text-anchor="start" dominant-baseline="alphabetic" transform="matrix(1 0 0 1 0 0)">UNREGISTERED</text><text fill="#cfcfcf" stroke="none" font-family="Arial" font-size="8px" font-style="normal" font-weight="normal" text-decoration="undefined" x="0" y="108" text-anchor="start" dominant-baseline="alphabetic" transform="matrix(1 0 0 1 0 0)">UNREGISTERED</text><text fill="#cfcfcf" stroke="none" font-family="Arial" font-size="8px" font-style="normal" font-weight="normal" text-decoration="undefined" x="0" y="120" text-anchor="start" dominant-baseline="alphabetic" transform="matrix(1 0 0 1 0 0)">UNREGISTERED</text><text fill="#cfcfcf" stroke="none" font-family="Arial" font-size="8px" font-style="normal" font-weight="normal" text-decoration="undefined" x="0" y="132" text-anchor="start" dominant-baseline="alphabetic" transform="matrix(1 0 0 1 0 0)">UNREGISTERED</text><text fill="#cfcfcf" stroke="none" font-family="Arial" font-size="8px" font-style="normal" font-weight="normal" text-decoration="undefined" x="0" y="144" text-anchor="start" dominant-baseline="alphabetic" transform="matrix(1 0 0 1 0 0)">UNREGISTERED</text><text fill="#cfcfcf" stroke="none" font-family="Arial" font-size="8px" font-style="normal" font-weight="normal" text-decoration="undefined" x="0" y="156" text-anchor="start" dominant-baseline="alphabetic" transform="matrix(1 0 0 1 0 0)">UNREGISTERED</text><text fill="#cfcfcf" stroke="none" font-family="Arial" font-size="8px" font-style="normal" font-weight="normal" text-decoration="undefined" x="0" y="168" text-anchor="start" dominant-baseline="alphabetic" transform="matrix(1 0 0 1 0 0)">UNREGISTERED</text><text fill="#cfcfcf" stroke="none" font-family="Arial" font-size="8px" font-style="normal" font-weight="normal" text-decoration="undefined" x="0" y="180" text-anchor="start" dominant-baseline="alphabetic" transform="matrix(1 0 0 1 0 0)">UNREGISTERED</text><text fill="#cfcfcf" stroke="none" font-family="Arial" font-size="8px" font-style="normal" font-weight="normal" text-decoration="undefined" x="0" y="192" text-anchor="start" dominant-baseline="alphabetic" transform="matrix(1 0 0 1 0 0)">UNREGISTERED</text><text fill="#cfcfcf" stroke="none" font-family="Arial" font-size="8px" font-style="normal" font-weight="normal" text-decoration="undefined" x="0" y="204" text-anchor="start" dominant-baseline="alphabetic" transform="matrix(1 0 0 1 0 0)">UNREGISTERED</text><text fill="#cfcfcf" stroke="none" font-family="Arial" font-size="8px" font-style="normal" font-weight="normal" text-decoration="undefined" x="0" y="216" text-anchor="start" dominant-baseline="alphabetic" transform="matrix(1 0 0 1 0 0)">UNREGISTERED</text><text fill="#cfcfcf" stroke="none" font-family="Arial" font-size="8px" font-style="normal" font-weight="normal" text-decoration="undefined" x="70" y="0" text-anchor="start" dominant-baseline="alphabetic" transform="matrix(1 0 0 1 0 0)">UNREGISTERED</text><text fill="#cfcfcf" stroke="none" font-family="Arial" font-size="8px" font-style="normal" font-weight="normal" text-decoration="undefined" x="70" y="12" text-anchor="start" dominant-baseline="alphabetic" transform="matrix(1 0 0 1 0 0)">UNREGISTERED</text><text fill="#cfcfcf" stroke="none" font-family="Arial" font-size="8px" font-style="normal" font-weight="normal" text-decoration="undefined" x="70" y="24" text-anchor="start" dominant-baseline="alphabetic" transform="matrix(1 0 0 1 0 0)">UNREGISTERED</text><text fill="#cfcfcf" stroke="none" font-family="Arial" font-size="8px" font-style="normal" font-weight="normal" text-decoration="undefined" x="70" y="36" text-anchor="start" dominant-baseline="alphabetic" transform="matrix(1 0 0 1 0 0)">UNREGISTERED</text><text fill="#cfcfcf" stroke="none" font-family="Arial" font-size="8px" font-style="normal" font-weight="normal" text-decoration="undefined" x="70" y="48" text-anchor="start" dominant-baseline="alphabetic" transform="matrix(1 0 0 1 0 0)">UNREGISTERED</text><text fill="#cfcfcf" stroke="none" font-family="Arial" font-size="8px" font-style="normal" font-weight="normal" text-decoration="undefined" x="70" y="60" text-anchor="start" dominant-baseline="alphabetic" transform="matrix(1 0 0 1 0 0)">UNREGISTERED</text><text fill="#cfcfcf" stroke="none" font-family="Arial" font-size="8px" font-style="normal" font-weight="normal" text-decoration="undefined" x="70" y="72" text-anchor="start" dominant-baseline="alphabetic" transform="matrix(1 0 0 1 0 0)">UNREGISTERED</text><text fill="#cfcfcf" stroke="none" font-family="Arial" font-size="8px" font-style="normal" font-weight="normal" text-decoration="undefined" x="70" y="84" text-anchor="start" dominant-baseline="alphabetic" transform="matrix(1 0 0 1 0 0)">UNREGISTERED</text><text fill="#cfcfcf" stroke="none" font-family="Arial" font-size="8px" font-style="normal" font-weight="normal" text-decoration="undefined" x="70" y="96" text-anchor="start" dominant-baseline="alphabetic" transform="matrix(1 0 0 1 0 0)">UNREGISTERED</text><text fill="#cfcfcf" stroke="none" font-family="Arial" font-size="8px" font-style="normal" font-weight="normal" text-decoration="undefined" x="70" y="108" text-anchor="start" dominant-baseline="alphabetic" transform="matrix(1 0 0 1 0 0)">UNREGISTERED</text><text fill="#cfcfcf" stroke="none" font-family="Arial" font-size="8px" font-style="normal" font-weight="normal" text-decoration="undefined" x="70" y="120" text-anchor="start" dominant-baseline="alphabetic" transform="matrix(1 0 0 1 0 0)">UNREGISTERED</text><text fill="#cfcfcf" stroke="none" font-family="Arial" font-size="8px" font-style="normal" font-weight="normal" text-decoration="undefined" x="70" y="132" text-anchor="start" dominant-baseline="alphabetic" transform="matrix(1 0 0 1 0 0)">UNREGISTERED</text><text fill="#cfcfcf" stroke="none" font-family="Arial" font-size="8px" font-style="normal" font-weight="normal" text-decoration="undefined" x="70" y="144" text-anchor="start" dominant-baseline="alphabetic" transform="matrix(1 0 0 1 0 0)">UNREGISTERED</text><text fill="#cfcfcf" stroke="none" font-family="Arial" font-size="8px" font-style="normal" font-weight="normal" text-decoration="undefined" x="70" y="156" text-anchor="start" dominant-baseline="alphabetic" transform="matrix(1 0 0 1 0 0)">UNREGISTERED</text><text fill="#cfcfcf" stroke="none" font-family="Arial" font-size="8px" font-style="normal" font-weight="normal" text-decoration="undefined" x="70" y="168" text-anchor="start" dominant-baseline="alphabetic" transform="matrix(1 0 0 1 0 0)">UNREGISTERED</text><text fill="#cfcfcf" stroke="none" font-family="Arial" font-size="8px" font-style="normal" font-weight="normal" text-decoration="undefined" x="70" y="180" text-anchor="start" dominant-baseline="alphabetic" transform="matrix(1 0 0 1 0 0)">UNREGISTERED</text><text fill="#cfcfcf" stroke="none" font-family="Arial" font-size="8px" font-style="normal" font-weight="normal" text-decoration="undefined" x="70" y="192" text-anchor="start" dominant-baseline="alphabetic" transform="matrix(1 0 0 1 0 0)">UNREGISTERED</text><text fill="#cfcfcf" stroke="none" font-family="Arial" font-size="8px" font-style="normal" font-weight="normal" text-decoration="undefined" x="70" y="204" text-anchor="start" dominant-baseline="alphabetic" transform="matrix(1 0 0 1 0 0)">UNREGISTERED</text><text fill="#cfcfcf" stroke="none" font-family="Arial" font-size="8px" font-style="normal" font-weight="normal" text-decoration="undefined" x="70" y="216" text-anchor="start" dominant-baseline="alphabetic" transform="matrix(1 0 0 1 0 0)">UNREGISTERED</text><text fill="#cfcfcf" stroke="none" font-family="Arial" font-size="8px" font-style="normal" font-weight="normal" text-decoration="undefined" x="140" y="0" text-anchor="start" dominant-baseline="alphabetic" transform="matrix(1 0 0 1 0 0)">UNREGISTERED</text><text fill="#cfcfcf" stroke="none" font-family="Arial" font-size="8px" font-style="normal" font-weight="normal" text-decoration="undefined" x="140" y="12" text-anchor="start" dominant-baseline="alphabetic" transform="matrix(1 0 0 1 0 0)">UNREGISTERED</text><text fill="#cfcfcf" stroke="none" font-family="Arial" font-size="8px" font-style="normal" font-weight="normal" text-decoration="undefined" x="140" y="24" text-anchor="start" dominant-baseline="alphabetic" transform="matrix(1 0 0 1 0 0)">UNREGISTERED</text><text fill="#cfcfcf" stroke="none" font-family="Arial" font-size="8px" font-style="normal" font-weight="normal" text-decoration="undefined" x="140" y="36" text-anchor="start" dominant-baseline="alphabetic" transform="matrix(1 0 0 1 0 0)">UNREGISTERED</text><text fill="#cfcfcf" stroke="none" font-family="Arial" font-size="8px" font-style="normal" font-weight="normal" text-decoration="undefined" x="140" y="48" text-anchor="start" dominant-baseline="alphabetic" transform="matrix(1 0 0 1 0 0)">UNREGISTERED</text><text fill="#cfcfcf" stroke="none" font-family="Arial" font-size="8px" font-style="normal" font-weight="normal" text-decoration="undefined" x="140" y="60" text-anchor="start" dominant-baseline="alphabetic" transform="matrix(1 0 0 1 0 0)">UNREGISTERED</text><text fill="#cfcfcf" stroke="none" font-family="Arial" font-size="8px" font-style="normal" font-weight="normal" text-decoration="undefined" x="140" y="72" text-anchor="start" dominant-baseline="alphabetic" transform="matrix(1 0 0 1 0 0)">UNREGISTERED</text><text fill="#cfcfcf" stroke="none" font-family="Arial" font-size="8px" font-style="normal" font-weight="normal" text-decoration="undefined" x="140" y="84" text-anchor="start" dominant-baseline="alphabetic" transform="matrix(1 0 0 1 0 0)">UNREGISTERED</text><text fill="#cfcfcf" stroke="none" font-family="Arial" font-size="8px" font-style="normal" font-weight="normal" text-decoration="undefined" x="140" y="96" text-anchor="start" dominant-baseline="alphabetic" transform="matrix(1 0 0 1 0 0)">UNREGISTERED</text><text fill="#cfcfcf" stroke="none" font-family="Arial" font-size="8px" font-style="normal" font-weight="normal" text-decoration="undefined" x="140" y="108" text-anchor="start" dominant-baseline="alphabetic" transform="matrix(1 0 0 1 0 0)">UNREGISTERED</text><text fill="#cfcfcf" stroke="none" font-family="Arial" font-size="8px" font-style="normal" font-weight="normal" text-decoration="undefined" x="140" y="120" text-anchor="start" dominant-baseline="alphabetic" transform="matrix(1 0 0 1 0 0)">UNREGISTERED</text><text fill="#cfcfcf" stroke="none" font-family="Arial" font-size="8px" font-style="normal" font-weight="normal" text-decoration="undefined" x="140" y="132" text-anchor="start" dominant-baseline="alphabetic" transform="matrix(1 0 0 1 0 0)">UNREGISTERED</text><text fill="#cfcfcf" stroke="none" font-family="Arial" font-size="8px" font-style="normal" font-weight="normal" text-decoration="undefined" x="140" y="144" text-anchor="start" dominant-baseline="alphabetic" transform="matrix(1 0 0 1 0 0)">UNREGISTERED</text><text fill="#cfcfcf" stroke="none" font-family="Arial" font-size="8px" font-style="normal" font-weight="normal" text-decoration="undefined" x="140" y="156" text-anchor="start" dominant-baseline="alphabetic" transform="matrix(1 0 0 1 0 0)">UNREGISTERED</text><text fill="#cfcfcf" stroke="none" font-family="Arial" font-size="8px" font-style="normal" font-weight="normal" text-decoration="undefined" x="140" y="168" text-anchor="start" dominant-baseline="alphabetic" transform="matrix(1 0 0 1 0 0)">UNREGISTERED</text><text fill="#cfcfcf" stroke="none" font-family="Arial" font-size="8px" font-style="normal" font-weight="normal" text-decoration="undefined" x="140" y="180" text-anchor="start" dominant-baseline="alphabetic" transform="matrix(1 0 0 1 0 0)">UNREGISTERED</text><text fill="#cfcfcf" stroke="none" font-family="Arial" font-size="8px" font-style="normal" font-weight="normal" text-decoration="undefined" x="140" y="192" text-anchor="start" dominant-baseline="alphabetic" transform="matrix(1 0 0 1 0 0)">UNREGISTERED</text><text fill="#cfcfcf" stroke="none" font-family="Arial" font-size="8px" font-style="normal" font-weight="normal" text-decoration="undefined" x="140" y="204" text-anchor="start" dominant-baseline="alphabetic" transform="matrix(1 0 0 1 0 0)">UNREGISTERED</text><text fill="#cfcfcf" stroke="none" font-family="Arial" font-size="8px" font-style="normal" font-weight="normal" text-decoration="undefined" x="140" y="216" text-anchor="start" dominant-baseline="alphabetic" transform="matrix(1 0 0 1 0 0)">UNREGISTERED</text><text fill="#cfcfcf" stroke="none" font-family="Arial" font-size="8px" font-style="normal" font-weight="normal" text-decoration="undefined" x="210" y="0" text-anchor="start" dominant-baseline="alphabetic" transform="matrix(1 0 0 1 0 0)">UNREGISTERED</text><text fill="#cfcfcf" stroke="none" font-family="Arial" font-size="8px" font-style="normal" font-weight="normal" text-decoration="undefined" x="210" y="12" text-anchor="start" dominant-baseline="alphabetic" transform="matrix(1 0 0 1 0 0)">UNREGISTERED</text><text fill="#cfcfcf" stroke="none" font-family="Arial" font-size="8px" font-style="normal" font-weight="normal" text-decoration="undefined" x="210" y="24" text-anchor="start" dominant-baseline="alphabetic" transform="matrix(1 0 0 1 0 0)">UNREGISTERED</text><text fill="#cfcfcf" stroke="none" font-family="Arial" font-size="8px" font-style="normal" font-weight="normal" text-decoration="undefined" x="210" y="36" text-anchor="start" dominant-baseline="alphabetic" transform="matrix(1 0 0 1 0 0)">UNREGISTERED</text><text fill="#cfcfcf" stroke="none" font-family="Arial" font-size="8px" font-style="normal" font-weight="normal" text-decoration="undefined" x="210" y="48" text-anchor="start" dominant-baseline="alphabetic" transform="matrix(1 0 0 1 0 0)">UNREGISTERED</text><text fill="#cfcfcf" stroke="none" font-family="Arial" font-size="8px" font-style="normal" font-weight="normal" text-decoration="undefined" x="210" y="60" text-anchor="start" dominant-baseline="alphabetic" transform="matrix(1 0 0 1 0 0)">UNREGISTERED</text><text fill="#cfcfcf" stroke="none" font-family="Arial" font-size="8px" font-style="normal" font-weight="normal" text-decoration="undefined" x="210" y="72" text-anchor="start" dominant-baseline="alphabetic" transform="matrix(1 0 0 1 0 0)">UNREGISTERED</text><text fill="#cfcfcf" stroke="none" font-family="Arial" font-size="8px" font-style="normal" font-weight="normal" text-decoration="undefined" x="210" y="84" text-anchor="start" dominant-baseline="alphabetic" transform="matrix(1 0 0 1 0 0)">UNREGISTERED</text><text fill="#cfcfcf" stroke="none" font-family="Arial" font-size="8px" font-style="normal" font-weight="normal" text-decoration="undefined" x="210" y="96" text-anchor="start" dominant-baseline="alphabetic" transform="matrix(1 0 0 1 0 0)">UNREGISTERED</text><text fill="#cfcfcf" stroke="none" font-family="Arial" font-size="8px" font-style="normal" font-weight="normal" text-decoration="undefined" x="210" y="108" text-anchor="start" dominant-baseline="alphabetic" transform="matrix(1 0 0 1 0 0)">UNREGISTERED</text><text fill="#cfcfcf" stroke="none" font-family="Arial" font-size="8px" font-style="normal" font-weight="normal" text-decoration="undefined" x="210" y="120" text-anchor="start" dominant-baseline="alphabetic" transform="matrix(1 0 0 1 0 0)">UNREGISTERED</text><text fill="#cfcfcf" stroke="none" font-family="Arial" font-size="8px" font-style="normal" font-weight="normal" text-decoration="undefined" x="210" y="132" text-anchor="start" dominant-baseline="alphabetic" transform="matrix(1 0 0 1 0 0)">UNREGISTERED</text><text fill="#cfcfcf" stroke="none" font-family="Arial" font-size="8px" font-style="normal" font-weight="normal" text-decoration="undefined" x="210" y="144" text-anchor="start" dominant-baseline="alphabetic" transform="matrix(1 0 0 1 0 0)">UNREGISTERED</text><text fill="#cfcfcf" stroke="none" font-family="Arial" font-size="8px" font-style="normal" font-weight="normal" text-decoration="undefined" x="210" y="156" text-anchor="start" dominant-baseline="alphabetic" transform="matrix(1 0 0 1 0 0)">UNREGISTERED</text><text fill="#cfcfcf" stroke="none" font-family="Arial" font-size="8px" font-style="normal" font-weight="normal" text-decoration="undefined" x="210" y="168" text-anchor="start" dominant-baseline="alphabetic" transform="matrix(1 0 0 1 0 0)">UNREGISTERED</text><text fill="#cfcfcf" stroke="none" font-family="Arial" font-size="8px" font-style="normal" font-weight="normal" text-decoration="undefined" x="210" y="180" text-anchor="start" dominant-baseline="alphabetic" transform="matrix(1 0 0 1 0 0)">UNREGISTERED</text><text fill="#cfcfcf" stroke="none" font-family="Arial" font-size="8px" font-style="normal" font-weight="normal" text-decoration="undefined" x="210" y="192" text-anchor="start" dominant-baseline="alphabetic" transform="matrix(1 0 0 1 0 0)">UNREGISTERED</text><text fill="#cfcfcf" stroke="none" font-family="Arial" font-size="8px" font-style="normal" font-weight="normal" text-decoration="undefined" x="210" y="204" text-anchor="start" dominant-baseline="alphabetic" transform="matrix(1 0 0 1 0 0)">UNREGISTERED</text><text fill="#cfcfcf" stroke="none" font-family="Arial" font-size="8px" font-style="normal" font-weight="normal" text-decoration="undefined" x="210" y="216" text-anchor="start" dominant-baseline="alphabetic" transform="matrix(1 0 0 1 0 0)">UNREGISTERED</text><text fill="#cfcfcf" stroke="none" font-family="Arial" font-size="8px" font-style="normal" font-weight="normal" text-decoration="undefined" x="280" y="0" text-anchor="start" dominant-baseline="alphabetic" transform="matrix(1 0 0 1 0 0)">UNREGISTERED</text><text fill="#cfcfcf" stroke="none" font-family="Arial" font-size="8px" font-style="normal" font-weight="normal" text-decoration="undefined" x="280" y="12" text-anchor="start" dominant-baseline="alphabetic" transform="matrix(1 0 0 1 0 0)">UNREGISTERED</text><text fill="#cfcfcf" stroke="none" font-family="Arial" font-size="8px" font-style="normal" font-weight="normal" text-decoration="undefined" x="280" y="24" text-anchor="start" dominant-baseline="alphabetic" transform="matrix(1 0 0 1 0 0)">UNREGISTERED</text><text fill="#cfcfcf" stroke="none" font-family="Arial" font-size="8px" font-style="normal" font-weight="normal" text-decoration="undefined" x="280" y="36" text-anchor="start" dominant-baseline="alphabetic" transform="matrix(1 0 0 1 0 0)">UNREGISTERED</text><text fill="#cfcfcf" stroke="none" font-family="Arial" font-size="8px" font-style="normal" font-weight="normal" text-decoration="undefined" x="280" y="48" text-anchor="start" dominant-baseline="alphabetic" transform="matrix(1 0 0 1 0 0)">UNREGISTERED</text><text fill="#cfcfcf" stroke="none" font-family="Arial" font-size="8px" font-style="normal" font-weight="normal" text-decoration="undefined" x="280" y="60" text-anchor="start" dominant-baseline="alphabetic" transform="matrix(1 0 0 1 0 0)">UNREGISTERED</text><text fill="#cfcfcf" stroke="none" font-family="Arial" font-size="8px" font-style="normal" font-weight="normal" text-decoration="undefined" x="280" y="72" text-anchor="start" dominant-baseline="alphabetic" transform="matrix(1 0 0 1 0 0)">UNREGISTERED</text><text fill="#cfcfcf" stroke="none" font-family="Arial" font-size="8px" font-style="normal" font-weight="normal" text-decoration="undefined" x="280" y="84" text-anchor="start" dominant-baseline="alphabetic" transform="matrix(1 0 0 1 0 0)">UNREGISTERED</text><text fill="#cfcfcf" stroke="none" font-family="Arial" font-size="8px" font-style="normal" font-weight="normal" text-decoration="undefined" x="280" y="96" text-anchor="start" dominant-baseline="alphabetic" transform="matrix(1 0 0 1 0 0)">UNREGISTERED</text><text fill="#cfcfcf" stroke="none" font-family="Arial" font-size="8px" font-style="normal" font-weight="normal" text-decoration="undefined" x="280" y="108" text-anchor="start" dominant-baseline="alphabetic" transform="matrix(1 0 0 1 0 0)">UNREGISTERED</text><text fill="#cfcfcf" stroke="none" font-family="Arial" font-size="8px" font-style="normal" font-weight="normal" text-decoration="undefined" x="280" y="120" text-anchor="start" dominant-baseline="alphabetic" transform="matrix(1 0 0 1 0 0)">UNREGISTERED</text><text fill="#cfcfcf" stroke="none" font-family="Arial" font-size="8px" font-style="normal" font-weight="normal" text-decoration="undefined" x="280" y="132" text-anchor="start" dominant-baseline="alphabetic" transform="matrix(1 0 0 1 0 0)">UNREGISTERED</text><text fill="#cfcfcf" stroke="none" font-family="Arial" font-size="8px" font-style="normal" font-weight="normal" text-decoration="undefined" x="280" y="144" text-anchor="start" dominant-baseline="alphabetic" transform="matrix(1 0 0 1 0 0)">UNREGISTERED</text><text fill="#cfcfcf" stroke="none" font-family="Arial" font-size="8px" font-style="normal" font-weight="normal" text-decoration="undefined" x="280" y="156" text-anchor="start" dominant-baseline="alphabetic" transform="matrix(1 0 0 1 0 0)">UNREGISTERED</text><text fill="#cfcfcf" stroke="none" font-family="Arial" font-size="8px" font-style="normal" font-weight="normal" text-decoration="undefined" x="280" y="168" text-anchor="start" dominant-baseline="alphabetic" transform="matrix(1 0 0 1 0 0)">UNREGISTERED</text><text fill="#cfcfcf" stroke="none" font-family="Arial" font-size="8px" font-style="normal" font-weight="normal" text-decoration="undefined" x="280" y="180" text-anchor="start" dominant-baseline="alphabetic" transform="matrix(1 0 0 1 0 0)">UNREGISTERED</text><text fill="#cfcfcf" stroke="none" font-family="Arial" font-size="8px" font-style="normal" font-weight="normal" text-decoration="undefined" x="280" y="192" text-anchor="start" dominant-baseline="alphabetic" transform="matrix(1 0 0 1 0 0)">UNREGISTERED</text><text fill="#cfcfcf" stroke="none" font-family="Arial" font-size="8px" font-style="normal" font-weight="normal" text-decoration="undefined" x="280" y="204" text-anchor="start" dominant-baseline="alphabetic" transform="matrix(1 0 0 1 0 0)">UNREGISTERED</text><text fill="#cfcfcf" stroke="none" font-family="Arial" font-size="8px" font-style="normal" font-weight="normal" text-decoration="undefined" x="280" y="216" text-anchor="start" dominant-baseline="alphabetic" transform="matrix(1 0 0 1 0 0)">UNREGISTERED</text><g><path fill="#ffffff" stroke="none" paint-order="stroke fill markers" d=" M 130 10 L 192.47900390625 10 L 202.47900390625 20 L 202.47900390625 49 L 130 49 L 130 10"/></g><g><path fill="none" stroke="#000000" paint-order="fill stroke markers" d=" M 130 10 L 192.47900390625 10 L 202.47900390625 20 L 202.47900390625 49 L 130 49 L 130 10 L 130 10" stroke-miterlimit="10" stroke-dasharray=""/></g><g><path fill="none" stroke="#000000" paint-order="fill stroke markers" d=" M 192.47900390625 10 L 192.47900390625 20 L 202.47900390625 20 L 192.47900390625 10" stroke-miterlimit="10" stroke-dasharray=""/></g><g><g><path fill="none" stroke="none"/><text fill="#000000" stroke="none" font-family="Arial" font-size="13px" font-style="normal" font-weight="normal" text-decoration="undefined" x="493" y="109" text-anchor="start" dominant-baseline="text-before-edge" transform="matrix(1 0 0 1 -358 -94)">Ismael</text><text fill="#000000" stroke="none" font-family="Arial" font-size="13px" font-style="normal" font-weight="normal" text-decoration="undefined" x="493" y="122" text-anchor="start" dominant-baseline="text-before-edge" transform="matrix(1 0 0 1 -358 -94)">Escalada </text></g></g><g><path fill="#C0C0C0" stroke="none" paint-order="stroke fill markers" d=" M 161.57568359375 85 C 161.57568359375 78.3725824 166.94826599375006 73 173.57568359375 73 C 180.20310119374994 73 185.57568359375 78.3725824 185.57568359375 85 C 185.57568359375 91.6274176 180.20310119374994 97 173.57568359375 97 C 166.94826599375006 97 161.57568359375 91.6274176 161.57568359375 85 Z" fill-opacity="0.2"/></g><g><path fill="#ffffff" stroke="none" paint-order="stroke fill markers" d=" M 154.57568359375 78 C 154.57568359375 71.3725824 159.94826599375006 66 166.57568359375 66 C 173.20310119374994 66 178.57568359375 71.3725824 178.57568359375 78 C 178.57568359375 84.6274176 173.20310119374994 90 166.57568359375 90 C 159.94826599375006 90 154.57568359375 84.6274176 154.57568359375 78 Z"/></g><g><path fill="none" stroke="#000000" paint-order="fill stroke markers" d=" M 154.57568359375 78 C 154.57568359375 71.3725824 159.94826599375006 66 166.57568359375 66 C 173.20310119374994 66 178.57568359375 71.3725824 178.57568359375 78 C 178.57568359375 84.6274176 173.20310119374994 90 166.57568359375 90 C 159.94826599375006 90 154.57568359375 84.6274176 154.57568359375 78 Z" stroke-miterlimit="10" stroke-dasharray=""/></g><g><path fill="none" stroke="#000000" paint-order="fill stroke markers" d=" M 10 130 L 324.1513671875 130" stroke-miterlimit="10" stroke-dasharray=""/></g><g><g><path fill="none" stroke="none"/><text fill="#000000" stroke="none" font-family="Arial" font-size="13px" font-style="normal" font-weight="bold" text-decoration="undefined" x="525.07568359375" y="197.5" text-anchor="middle" dominant-baseline="central" transform="matrix(1 0 0 1 -358 -94)">DAOEventos</text></g></g><g><g><path fill="none" stroke="none"/><text fill="#000000" stroke="none" font-family="Arial" font-size="13px" font-style="normal" font-weight="normal" text-decoration="undefined" x="525.07568359375" y="212.5" text-anchor="middle" dominant-baseline="central" transform="matrix(1 0 0 1 -358 -94)">(from Componentes)</text></g></g><g><g><path fill="none" stroke="none"/><text fill="#000000" stroke="none" font-family="Arial" font-size="13px" font-style="normal" font-weight="normal" text-decoration="undefined" x="373" y="235.5" text-anchor="start" dominant-baseline="central" transform="matrix(1 0 0 1 -358 -94)">+borraEvento(Id: int): Evento</text></g></g><g><g><path fill="none" stroke="none"/><text fill="#000000" stroke="none" font-family="Arial" font-size="13px" font-style="normal" font-weight="normal" text-decoration="undefined" x="373" y="250.5" text-anchor="start" dominant-baseline="central" transform="matrix(1 0 0 1 -358 -94)">+creaEvento(evento: Evento): Boolean</text></g></g><g><g><path fill="none" stroke="none"/><text fill="#000000" stroke="none" font-family="Arial" font-size="13px" font-style="normal" font-weight="normal" text-decoration="undefined" x="373" y="265.5" text-anchor="start" dominant-baseline="central" transform="matrix(1 0 0 1 -358 -94)">+buscaEvento(Id: int): Evento</text></g></g><g><g><path fill="none" stroke="none"/><text fill="#000000" stroke="none" font-family="Arial" font-size="13px" font-style="normal" font-weight="normal" text-decoration="undefined" x="373" y="280.5" text-anchor="start" dominant-baseline="central" transform="matrix(1 0 0 1 -358 -94)">+actualizaEvento(Id;int, eventoMod: Evento): Evento</text></g></g><g><g><path fill="none" stroke="none"/><text fill="#000000" stroke="none" font-family="Arial" font-size="13px" font-style="normal" font-weight="normal" text-decoration="undefined" x="373" y="295.5" text-anchor="start" dominant-baseline="central" transform="matrix(1 0 0 1 -358 -94)">+listaEventos(): Evento[*]</text></g></g></g></svg>